<svg className="rsvg-icon"  xmlns="http://www.w3.org/2000/svg" viewBox="0 0 128 128"><path d="M126.25,51.963H107.913a6.711,6.711,0,0,0,.837-3.25V45.572a1.75,1.75,0,0,0-1.75-1.75h-3V25.572a1.749,1.749,0,0,0-1.75-1.75H83.5V8.95A1.75,1.75,0,0,0,81.75,7.2H21a1.75,1.75,0,0,0-1.75,1.75V38.7A1.75,1.75,0,0,0,21,40.449H44.062V51.963H1.75A1.75,1.75,0,0,0,0,53.713v12a1.75,1.75,0,0,0,1.75,1.75H12.86L3.241,118.728a1.75,1.75,0,0,0,1.72,2.072h6.995a1.751,1.751,0,0,0,1.685-1.276L28.294,67.463H99.706l14.653,52.061a1.751,1.751,0,0,0,1.684,1.276h7a1.75,1.75,0,0,0,1.72-2.072L115.14,67.463h11.11a1.75,1.75,0,0,0,1.75-1.75v-12A1.75,1.75,0,0,0,126.25,51.963Zm-21-3.25a3.254,3.254,0,0,1-3.25,3.25H73.875a3.254,3.254,0,0,1-3.25-3.25V47.322H105.25ZM72.127,40.449v3.373H68.875a1.75,1.75,0,0,0-1.75,1.75v3.141a6.711,6.711,0,0,0,.837,3.25H58.687V40.449ZM100.5,43.822H75.627v-16.5H100.5ZM22.75,10.7H80V23.822H73.877a1.75,1.75,0,0,0-1.75,1.75V36.949H22.75ZM47.562,40.449h7.625V51.963H47.562ZM10.631,117.3H7.07l9.351-49.837h8.237Zm110.3,0h-3.561L103.342,67.463h8.237Zm3.57-53.337H3.5v-8.5h121Z"/></svg>