<svg className="rsvg-icon" viewBox="0 0 64 64" xmlns="http://www.w3.org/2000/svg"><g><path d="m18.765 51.915h-8.5a1 1 0 0 1 -.993-.875l-3.2-25.388a1 1 0 0 1 1.988-.252l3.086 24.513h6.619v-22.685a1 1 0 0 1 2 0v23.687a1 1 0 0 1 -1 1z"/><path d="m14 28.917a12.353 12.353 0 0 1 -8.31-3.228 14.37 14.37 0 0 1 -4.69-10.741 14.371 14.371 0 0 1 4.688-10.741 12.324 12.324 0 0 1 9.678-3.156l29.528 5.237a1 1 0 0 1 .825.984v15.351a1 1 0 0 1 -.825.984l-29.464 5.229a12.571 12.571 0 0 1 -1.43.081zm-.028-25.949a10.41 10.41 0 0 0 -6.951 2.732 12.373 12.373 0 0 0 -4.021 9.248 12.371 12.371 0 0 0 4.022 9.252 10.32 10.32 0 0 0 8.122 2.658l28.575-5.072v-13.676l-28.639-5.081a10.061 10.061 0 0 0 -1.108-.061z"/><path d="m51.043 26.358a1 1 0 0 1 -.4-.082l-6.32-2.726a1 1 0 0 1 -.6-.918v-15.36a1 1 0 0 1 .6-.918l6.324-2.726a1 1 0 0 1 1.4.918v20.812a1 1 0 0 1 -1 1zm-5.324-4.384 4.324 1.864v-17.772l-4.324 1.865z"/><path d="m12.955 20.622a5.67 5.67 0 1 1 5.671-5.67 5.677 5.677 0 0 1 -5.671 5.67zm0-9.34a3.67 3.67 0 1 0 3.671 3.67 3.675 3.675 0 0 0 -3.671-3.67z"/><path d="m20.574 36h-1.809a1 1 0 0 1 -1-1v-5.149a1 1 0 0 1 1-1h1.809a2.407 2.407 0 0 1 2.4 2.4v2.349a2.407 2.407 0 0 1 -2.4 2.4zm-.809-2h.809a.406.406 0 0 0 .4-.4v-2.345a.405.405 0 0 0 -.4-.4h-.809z"/><path d="m13.756 63a1 1 0 0 1 -.728-1.687 2.55 2.55 0 0 0 .035-3.016c-1.583-2.831-.034-7.235.148-7.728a1 1 0 0 1 1.877.692c-.4 1.1-1.241 4.338-.278 6.059a4.52 4.52 0 0 1 -.327 5.367 1 1 0 0 1 -.727.313z"/><path d="m56.508 10.132a5.229 5.229 0 0 1 -3.271-1.4 1 1 0 0 1 1.356-1.47c.012.012 1.616 1.449 2.641.6 2.239-1.851 5.154-.162 5.276-.09a1 1 0 0 1 -1.017 1.728c-.027-.016-1.836-1.042-2.983-.092a3.064 3.064 0 0 1 -2.002.724z"/><path d="m56.508 16.021a5.233 5.233 0 0 1 -3.271-1.4 1 1 0 0 1 1.356-1.471c.012.013 1.616 1.45 2.641.6 2.239-1.851 5.154-.162 5.276-.09a1 1 0 0 1 -1.017 1.723c-.027-.017-1.836-1.042-2.983-.092a3.068 3.068 0 0 1 -2.002.73z"/><path d="m56.508 21.911a5.233 5.233 0 0 1 -3.271-1.4 1 1 0 0 1 1.356-1.471c.012.013 1.616 1.449 2.641.6 2.241-1.857 5.153-.163 5.277-.09a1 1 0 0 1 -1.019 1.721c-.049-.029-1.843-1.038-2.982-.09a3.066 3.066 0 0 1 -2.002.73z"/></g></svg>