<svg className="rsvg-icon"  viewBox="0 0 64 64" xmlns="http://www.w3.org/2000/svg"><path d="m32 27c-8.993 0-26 1.254-26 6s17.007 6 26 6 26-1.254 26-6-17.007-6-26-6zm0 10c-15.835 0-24-2.8-24-4s8.165-4 24-4 24 2.8 24 4-8.165 4-24 4z"/><path d="m32 23c-15.028 0-31 3.5-31 10v20c0 6.5 15.972 10 31 10s31-3.5 31-10v-20c0-6.495-15.972-10-31-10zm-29 30v-16.277a15.405 15.405 0 0 0 4 2.359v17.808c-2.573-1.22-4-2.581-4-3.89zm52-13.153v17.875a38.655 38.655 0 0 1 -4 1.218v-17.947c1.426-.34 2.766-.722 4-1.146zm-6 19.553q-1.881.4-4 .71v-18c1.377-.2 2.715-.423 4-.682zm-6 .972q-1.921.229-4 .381v-18c1.352-.1 2.689-.223 4-.377zm-6 .5q-1.944.1-4 .118v-18c1.333-.014 2.67-.055 4-.124zm-6 .118q-2.053-.02-4-.118v-18.003c1.33.069 2.667.11 4 .124zm-6-.24q-2.076-.15-4-.381v-18c1.311.154 2.648.28 4 .377zm-6-.643q-2.12-.31-4-.71v-17.967c1.285.259 2.623.486 4 .682zm-6-1.167a38.655 38.655 0 0 1 -4-1.218v-17.875c1.234.424 2.574.806 4 1.146zm44-2.05v-17.808a15.405 15.405 0 0 0 4-2.359v16.277c0 1.309-1.427 2.67-4 3.89zm-25-15.89c-17.09 0-29-4.216-29-8s11.91-8 29-8 29 4.216 29 8-11.91 8-29 8z"/><path d="m18.962 8.894 1.593-1.062-1.11-1.664-1.592 1.062a4.158 4.158 0 0 0 -.634 6.4l1.148 1.15a2.159 2.159 0 0 1 -.329 3.324l-1.593 1.062 1.11 1.664 1.592-1.062a4.158 4.158 0 0 0 .634-6.4l-1.148-1.15a2.159 2.159 0 0 1 .329-3.324z"/><path d="m31.962 3.894 1.593-1.062-1.11-1.664-1.592 1.062a4.158 4.158 0 0 0 -.634 6.4l1.148 1.15a2.159 2.159 0 0 1 -.329 3.324l-1.593 1.062 1.11 1.664 1.592-1.062a4.158 4.158 0 0 0 .634-6.4l-1.148-1.15a2.159 2.159 0 0 1 .329-3.324z"/><path d="m45.962 8.894 1.593-1.062-1.11-1.664-1.592 1.062a4.158 4.158 0 0 0 -.634 6.4l1.148 1.15a2.159 2.159 0 0 1 -.329 3.324l-1.593 1.062 1.11 1.664 1.592-1.062a4.158 4.158 0 0 0 .634-6.4l-1.148-1.15a2.159 2.159 0 0 1 .329-3.324z"/></svg>