<svg className="rsvg-icon" viewBox="0 0 512 512" xmlns="http://www.w3.org/2000/svg" data-name="Line cutting stroke ex"><g><path d="m488 200h-26.7042a27.8338 27.8338 0 0 0 2.7042-12v-36h-16v16h-96v-52.5381a92.1823 92.1823 0 0 1 38.5259-74.8638l9.4741-6.767 9.4741 6.767a92.1823 92.1823 0 0 1 38.5259 74.8638v20.5381h16v-20.5381a108.2122 108.2122 0 0 0 -45.2261-87.8833l-14.1239-10.0886a7.9985 7.9985 0 0 0 -9.3 0l-14.124 10.0884a108.2122 108.2122 0 0 0 -45.226 87.8835v72.5381a27.8338 27.8338 0 0 0 2.7042 12h-82.7042a8 8 0 0 0 -8-8h-176a8 8 0 0 0 -8 8h-40a8 8 0 0 0 -8 8v2a38.0433 38.0433 0 0 0 38 38h10v40h16v-80h160v128h-112v16h112v16h-160v-16h32v-16h-32v-32h-16v112a8 8 0 0 0 8 8h118.135l-80.64 56h-29.495v16h32a7.9974 7.9974 0 0 0 4.563-1.4292l101.622-70.5708h29.815a8 8 0 0 0 8-8v-18.26l139.437 96.8308a7.9974 7.9974 0 0 0 4.563 1.4292h32v-16h-29.4946l-132.48-92 134.5376-93.4292a8 8 0 0 0 3.437-6.5708v-8h32a7.9992 7.9992 0 0 0 7.1553-4.4224l13.8478-27.6955a38.051 38.051 0 0 0 34.9969-37.8821v-2a8 8 0 0 0 -8-8zm-434 32a22.0393 22.0393 0 0 1 -21.1685-16h31.1685v16zm298-44v-4h96v4a12.0137 12.0137 0 0 1 -12 12h-72a12.0137 12.0137 0 0 1 -12-12zm-272 220v-24h160v24zm355.0557-144h-75.0157v16h31.96v3.8159l-136 94.4446v-98.2605h88v-16h-88v-16h187.0557zm22.9443-32h-202v-16h223.1685a22.0393 22.0393 0 0 1 -21.1685 16z"/><path d="m392 56h16v24h-16z"/><path d="m368 88h16v16h-16z"/><path d="m368 112h16v16h-16z"/><path d="m368 136h16v16h-16z"/><path d="m416 88h16v16h-16z"/><path d="m416 112h16v16h-16z"/><path d="m416 136h16v16h-16z"/><path d="m58.4722 146.1748 16.5908 9.0732 9.0737 16.5909a8.0005 8.0005 0 0 0 14.0381 0l9.0732-16.5909 16.5909-9.0732a8.0005 8.0005 0 0 0 0-14.0381l-16.5909-9.0737-9.0732-16.5908a8 8 0 0 0 -14.0381 0l-9.0737 16.5908-16.5908 9.0737a8 8 0 0 0 0 14.0381zm26.3242-10.1982a8.004 8.004 0 0 0 3.18-3.18l3.1792-5.813 3.1787 5.8125a8.0018 8.0018 0 0 0 3.18 3.1807l5.813 3.1792-5.813 3.1787a8.0035 8.0035 0 0 0 -3.18 3.18l-3.1787 5.813-3.1792-5.813a8.0018 8.0018 0 0 0 -3.1807-3.18l-5.8125-3.1787z"/><path d="m156.1611 59.8633 16.5909 9.0737 9.0732 16.5908a8 8 0 0 0 14.0381 0l9.0737-16.5908 16.5908-9.0737a8 8 0 0 0 0-14.0381l-16.5908-9.0732-9.0737-16.5909a8.0005 8.0005 0 0 0 -14.0381 0l-9.0732 16.5909-16.5909 9.0732a8.0005 8.0005 0 0 0 0 14.0381zm26.3243-10.1978a8.0035 8.0035 0 0 0 3.18-3.18l3.1787-5.813 3.1792 5.813a8.0018 8.0018 0 0 0 3.1807 3.18l5.8125 3.1787-5.813 3.1792a8.004 8.004 0 0 0 -3.18 3.18l-3.1792 5.813-3.1787-5.8125a8.0018 8.0018 0 0 0 -3.18-3.1807l-5.813-3.1792z"/></g></svg>