<svg className="rsvg-icon" enableBackground="new 0 0 414.581 414.581" viewBox="0 0 414.581 414.581" xmlns="http://www.w3.org/2000/svg"><g><path d="m149.346 300.318c9.213 0 16.971-7.758 16.971-16.971s-7.758-16.971-16.971-16.971-16.971 7.758-16.971 16.971 7.758 16.971 16.971 16.971z"/><path d="m391.306 355.11h-9.213v-67.4c0-50.913-37.337-94.554-87.765-102.312 43.64-28.609 55.762-87.765 27.154-131.405s-88.25-55.762-131.89-26.669-56.247 87.765-27.154 131.405c7.273 10.668 16.001 19.88 27.154 27.154-10.183 1.455-19.88 4.364-29.093 8.728h-118.314c-13.577 0-24.729 11.637-23.275 25.699l11.637 128.011c.485 2.424.97 4.849 1.94 6.788h-8.727c-13.092.486-23.76 11.154-23.76 24.246.485 13.092 10.668 23.275 23.76 23.76h367.062c13.092-.485 23.76-11.152 23.76-24.245s-10.669-23.76-23.276-23.76zm-26.184-67.4v66.915h-33.942c.97-2.424 1.94-4.849 2.424-7.758l2.909-16.971c.97-5.334-3.394-9.698-8.243-9.698h-52.853l-9.698-104.736c-.485-5.819-3.394-11.152-6.788-14.547h19.396c48.004.485 86.31 39.276 86.795 86.795zm-47.519 49.944-.97 6.788c-.97 5.819-6.304 10.183-12.122 10.183h-25.699l-1.455-16.971zm-153.71-230.808c0-43.155 34.427-78.067 77.582-78.067s78.067 34.427 78.067 77.582-34.427 78.067-77.582 78.067c0 0 0 0-.485 0-42.67.001-77.582-34.426-77.582-77.582zm-121.708 104.737h200.26c3.394 0 5.819 2.424 6.304 5.819l12.607 137.709h-204.139c-4.849 0-9.213-3.879-9.698-8.728l-11.637-128.012c-.485-3.879 3.394-6.788 6.303-6.788zm349.121 174.56h-367.546c-3.879 0-6.788-3.394-6.788-7.273s2.909-6.788 6.788-6.788h367.062c3.879 0 6.788 3.394 6.788 7.273 0 3.394-2.909 6.303-6.304 6.788z"/></g></svg>