<svg className="rsvg-icon" version="1.1" xmlns="http://www.w3.org/2000/svg" xmlnsXlink="http://www.w3.org/1999/xlink" x="0px" y="0px"
                viewBox="0 0 512 512" xmlSpace="preserve">
            <g>
                <g>
                    <path d="M296,326c-5.52,0-10,4.48-10,10c0,5.52,4.48,10,10,10c5.52,0,10-4.48,10-10C306,330.48,301.52,326,296,326z"/>
                </g>
            </g>
            <g>
                <g>
                    <path d="M216,326c-5.52,0-10,4.48-10,10c0,5.52,4.48,10,10,10s10-4.48,10-10C226,330.48,221.52,326,216,326z"/>
                </g>
            </g>
            <g>
                <g>
                    <path d="M422,200H90c-5.523,0-10,4.478-10,10v212c0,5.522,4.477,10,10,10h332c5.522,0,10-4.478,10-10V210
                        C432,204.478,427.522,200,422,200z M412,412H100V220h312V412z"/>
                </g>
            </g>
            <g>
                <g>
                    <path d="M492,41.72V30c0-16.542-13.458-30-30-30H296c-16.542,0-30,13.458-30,30v10h-20V30c0-16.542-13.458-30-30-30H50
                        C33.458,0,20,13.458,20,30v11.72C8.361,45.848,0,56.964,0,70v372c0,14.294,10.052,26.277,23.456,29.272l17.6,35.199
                        C42.75,509.86,46.212,512,50,512h40c3.788,0,7.25-2.14,8.944-5.528L116.18,472h279.64l17.236,34.472
                        C414.75,509.86,418.212,512,422,512h40c3.788,0,7.25-2.14,8.944-5.528l17.6-35.199C501.948,468.277,512,456.294,512,442V70
                        C512,56.964,503.639,45.848,492,41.72z M286,30c0-5.514,4.486-10,10-10h166c5.514,0,10,4.486,10,10v10H286V30z M40,30
                        c0-5.514,4.486-10,10-10h166c5.514,0,10,4.486,10,10v10H40V30z M83.82,492H56.18l-10-20h47.64L83.82,492z M455.819,492H428.18
                        l-10-20h47.639L455.819,492z M492,442c0,5.514-4.486,10-10,10c-14.501,0-430.668,0-452,0c-5.514,0-10-4.486-10-10V180h472V442z
                        M492,160H20V70c0-5.514,4.486-10,10-10c27.566,0,438.678,0,452,0c5.514,0,10,4.486,10,10V160z"/>
                </g>
            </g>
            <g>
                <g>
                    <path d="M70,80c-16.542,0-30,13.458-30,30s13.458,30,30,30s30-13.458,30-30S86.542,80,70,80z M70,120c-5.514,0-10-4.486-10-10
                        s4.486-10,10-10s10,4.486,10,10S75.514,120,70,120z"/>
                </g>
            </g>
            <g>
                <g>
                    <path d="M196,80c-16.542,0-30,13.458-30,30s13.458,30,30,30s30-13.458,30-30S212.542,80,196,80z M196,120c-5.514,0-10-4.486-10-10
                        s4.486-10,10-10c5.514,0,10,4.486,10,10S201.514,120,196,120z"/>
                </g>
            </g>
            <g>
                <g>
                    <path d="M316,80c-16.542,0-30,13.458-30,30s13.458,30,30,30s30-13.458,30-30S332.542,80,316,80z M316,120c-5.514,0-10-4.486-10-10
                        s4.486-10,10-10c5.514,0,10,4.486,10,10S321.514,120,316,120z"/>
                </g>
            </g>
            <g>
                <g>
                    <path d="M442,80c-16.542,0-30,13.458-30,30s13.458,30,30,30s30-13.458,30-30S458.542,80,442,80z M442,120c-5.514,0-10-4.486-10-10
                        s4.486-10,10-10c5.514,0,10,4.486,10,10S447.514,120,442,120z"/>
                </g>
            </g>
            <g>
                <g>
                    <path d="M283.071,268.928c-3.906-3.904-10.236-3.904-14.143,0l-40,40c-3.905,3.905-3.905,10.237,0,14.143
                        c3.907,3.906,10.237,3.905,14.143,0l40-40C286.976,279.166,286.976,272.834,283.071,268.928z"/>
                </g>
            </g>
            <g>
                <g>
                    <path d="M363.071,268.928c-3.906-3.904-10.236-3.904-14.143,0l-40,40c-3.905,3.905-3.905,10.237,0,14.143
                        c3.908,3.906,10.237,3.905,14.143,0l40-40C366.976,279.166,366.976,272.834,363.071,268.928z"/>
                </g>
            </g>
            <g>
            </g>
            <g>
            </g>
            <g>
            </g>
            <g>
            </g>
            <g>
            </g>
            <g>
            </g>
            <g>
            </g>
            <g>
            </g>
            <g>
            </g>
            <g>
            </g>
            <g>
            </g>
            <g>
            </g>
            <g>
            </g>
            <g>
            </g>
            <g>
            </g>
            </svg>